<?xml version="1.0" encoding="UTF-8"?>
<svg id="Gifts" xmlns="http://www.w3.org/2000/svg" viewBox="0 0 1600 900">
  <defs>
    <style>
      .cls-1 {
        fill: #14143c;
      }

      .cls-1, .cls-2 {
        stroke-width: 0px;
      }

      .cls-2 {
        fill: #72728a;
      }
    </style>
  </defs>
  <rect class="cls-1" x="-.09" y="-1" width="1602" height="902"/>
  <path class="cls-2" d="m1010.82,238.75c-35.47,15.33-151.99,65.7-187.37,80.99-3.45,1.49-6.86-2.17-5.13-5.51,18.09-34.97,78.53-151.74,95.27-182.92,13.77-25.65,121.33,97.02,97.23,107.43Z"/>
  <path class="cls-2" d="m589.18,238.75c35.47,15.33,151.99,65.7,187.37,80.99,3.45,1.49,6.86-2.17,5.13-5.51-18.09-34.97-78.53-151.74-95.27-182.92-13.77-25.65-121.33,97.02-97.23,107.43Z"/>
  <g>
    <rect class="cls-2" x="434.6" y="350.97" width="730.81" height="367.4"/>
    <rect class="cls-1" x="782.14" y="164.8" width="35.71" height="743.83" transform="translate(1336.71 -263.29) rotate(90)"/>
    <rect class="cls-1" x="782.14" y="350.57" width="35.71" height="379.61"/>
  </g>
</svg>