<?xml version="1.0" encoding="UTF-8"?>
<svg xmlns="http://www.w3.org/2000/svg" viewBox="0 0 1600 900">
  <defs>
    <style>
      .cls-1 {
        fill: #72728a;
      }

      .cls-1, .cls-2 {
        stroke-width: 0px;
      }

      .cls-2 {
        fill: #14143c;
      }
    </style>
  </defs>
  <g id="Gifts">
    <rect class="cls-2" x="-.09" y="-1" width="1602" height="902"/>
  </g>
  <g id="VAT_refund" data-name="VAT refund">
    <g>
      <path class="cls-1" d="M1306.95,315.53c-1.38-1.5-3.27-2.4-5.26-2.48-2.4-.12-59.42-2.24-97.04,32.31-13.74,12.62-22.79,28.21-28.8,43.05-3.92-20.29-13.67-51.69-37.85-73.89-37.62-34.55-94.64-32.43-97.04-32.31-1.98.08-3.88.98-5.26,2.48-1.36,1.48-2.13,3.45-2.04,5.43.12,2.4,2.82,59.39,40.46,93.96,28.98,26.61,69.41,31.44,87.59,32.22v109.42h20.1v-78.61c18.6-.91,58.22-6.01,86.71-32.18,37.64-34.56,40.34-91.56,40.46-93.96.08-1.98-.68-3.95-2.04-5.43Z"/>
      <polygon class="cls-1" points="1309 482.54 1033.66 482.54 1033.66 568.88 1052.46 568.88 1070.06 730.17 1272.61 730.17 1290.21 568.88 1309 568.88 1309 482.54"/>
    </g>
    <g>
      <rect class="cls-1" x="344.89" y="241.14" width="542.11" height="489.04"/>
      <rect class="cls-1" x="753.37" y="85.65" width="18.96" height="252.82" transform="translate(344.86 884.52) rotate(-73.67)"/>
      <rect class="cls-1" x="333.78" y="175.58" width="272.11" height="18.95" transform="translate(-32.87 232.77) rotate(-26.92)"/>
      <rect class="cls-2" x="398.56" y="305.83" width="223.48" height="15.16"/>
      <rect class="cls-2" x="398.56" y="357.16" width="223.48" height="15.16"/>
      <rect class="cls-2" x="398.56" y="408.48" width="223.48" height="15.16"/>
    </g>
  </g>
</svg>